G04 #@! TF.GenerationSoftware,KiCad,Pcbnew,7.0.1*
G04 #@! TF.CreationDate,2023-04-19T14:44:16-07:00*
G04 #@! TF.ProjectId,momentum_panel,6d6f6d65-6e74-4756-9d5f-70616e656c2e,A*
G04 #@! TF.SameCoordinates,Original*
G04 #@! TF.FileFunction,Soldermask,Bot*
G04 #@! TF.FilePolarity,Negative*
%FSLAX46Y46*%
G04 Gerber Fmt 4.6, Leading zero omitted, Abs format (unit mm)*
G04 Created by KiCad (PCBNEW 7.0.1) date 2023-04-19 14:44:16*
%MOMM*%
%LPD*%
G01*
G04 APERTURE LIST*
G04 Aperture macros list*
%AMRoundRect*
0 Rectangle with rounded corners*
0 $1 Rounding radius*
0 $2 $3 $4 $5 $6 $7 $8 $9 X,Y pos of 4 corners*
0 Add a 4 corners polygon primitive as box body*
4,1,4,$2,$3,$4,$5,$6,$7,$8,$9,$2,$3,0*
0 Add four circle primitives for the rounded corners*
1,1,$1+$1,$2,$3*
1,1,$1+$1,$4,$5*
1,1,$1+$1,$6,$7*
1,1,$1+$1,$8,$9*
0 Add four rect primitives between the rounded corners*
20,1,$1+$1,$2,$3,$4,$5,0*
20,1,$1+$1,$4,$5,$6,$7,0*
20,1,$1+$1,$6,$7,$8,$9,0*
20,1,$1+$1,$8,$9,$2,$3,0*%
G04 Aperture macros list end*
%ADD10C,0.500000*%
%ADD11O,1.800000X1.800000*%
%ADD12O,1.500000X1.500000*%
%ADD13RoundRect,0.250000X-0.350000X-0.450000X0.350000X-0.450000X0.350000X0.450000X-0.350000X0.450000X0*%
%ADD14RoundRect,0.250000X-0.475000X0.337500X-0.475000X-0.337500X0.475000X-0.337500X0.475000X0.337500X0*%
%ADD15R,1.200000X1.200000*%
%ADD16R,1.500000X1.600000*%
%ADD17RoundRect,0.250000X0.337500X0.475000X-0.337500X0.475000X-0.337500X-0.475000X0.337500X-0.475000X0*%
%ADD18RoundRect,0.250000X-0.450000X0.350000X-0.450000X-0.350000X0.450000X-0.350000X0.450000X0.350000X0*%
%ADD19RoundRect,0.250000X0.450000X-0.350000X0.450000X0.350000X-0.450000X0.350000X-0.450000X-0.350000X0*%
%ADD20RoundRect,0.250000X-0.337500X-0.475000X0.337500X-0.475000X0.337500X0.475000X-0.337500X0.475000X0*%
%ADD21R,1.000000X1.500000*%
%ADD22RoundRect,0.250000X0.475000X-0.337500X0.475000X0.337500X-0.475000X0.337500X-0.475000X-0.337500X0*%
%ADD23R,4.000000X7.000000*%
%ADD24C,2.000000*%
%ADD25R,3.500000X8.500000*%
%ADD26RoundRect,0.250000X0.350000X0.450000X-0.350000X0.450000X-0.350000X-0.450000X0.350000X-0.450000X0*%
%ADD27R,1.700000X1.700000*%
%ADD28O,1.700000X1.700000*%
%ADD29RoundRect,0.150000X-0.150000X0.825000X-0.150000X-0.825000X0.150000X-0.825000X0.150000X0.825000X0*%
%ADD30R,1.300000X0.500000*%
%ADD31R,0.680000X1.350000*%
%ADD32R,2.390000X1.350000*%
%ADD33R,1.200000X1.350000*%
%ADD34R,1.080000X1.350000*%
%ADD35R,0.850000X2.910000*%
%ADD36R,0.650000X1.560000*%
G04 APERTURE END LIST*
D10*
G04 #@! TO.C,REF\u002A\u002A*
X47720000Y-72560000D03*
G04 #@! TD*
G04 #@! TO.C,REF\u002A\u002A*
X46720000Y-4750000D03*
G04 #@! TD*
G04 #@! TO.C,REF\u002A\u002A*
X82200000Y-4750000D03*
G04 #@! TD*
G04 #@! TO.C,REF\u002A\u002A*
X30730000Y-49873333D03*
G04 #@! TD*
G04 #@! TO.C,REF\u002A\u002A*
X32230000Y-25436667D03*
G04 #@! TD*
G04 #@! TO.C,REF\u002A\u002A*
X30730000Y-51873333D03*
G04 #@! TD*
G04 #@! TO.C,REF\u002A\u002A*
X63210000Y-29436667D03*
G04 #@! TD*
G04 #@! TO.C,REF\u002A\u002A*
X63210000Y-48873333D03*
G04 #@! TD*
G04 #@! TO.C,REF\u002A\u002A*
X30730000Y-27436667D03*
G04 #@! TD*
G04 #@! TO.C,REF\u002A\u002A*
X111680000Y-72560000D03*
G04 #@! TD*
G04 #@! TO.C,REF\u002A\u002A*
X63210000Y-49873333D03*
G04 #@! TD*
G04 #@! TO.C,REF\u002A\u002A*
X112680000Y-72560000D03*
G04 #@! TD*
G04 #@! TO.C,REF\u002A\u002A*
X111680000Y-4750000D03*
G04 #@! TD*
G04 #@! TO.C,REF\u002A\u002A*
X45720000Y-72560000D03*
G04 #@! TD*
G04 #@! TO.C,REF\u002A\u002A*
X63210000Y-25436667D03*
G04 #@! TD*
G04 #@! TO.C,REF\u002A\u002A*
X95690000Y-51873333D03*
G04 #@! TD*
G04 #@! TO.C,REF\u002A\u002A*
X32230000Y-27436667D03*
G04 #@! TD*
G04 #@! TO.C,REF\u002A\u002A*
X95690000Y-26436667D03*
G04 #@! TD*
G04 #@! TO.C,REF\u002A\u002A*
X97190000Y-27436667D03*
G04 #@! TD*
G04 #@! TO.C,REF\u002A\u002A*
X30730000Y-47873333D03*
G04 #@! TD*
G04 #@! TO.C,REF\u002A\u002A*
X32230000Y-48873333D03*
G04 #@! TD*
G04 #@! TO.C,REF\u002A\u002A*
X95690000Y-49873333D03*
G04 #@! TD*
G04 #@! TO.C,REF\u002A\u002A*
X49720000Y-72560000D03*
G04 #@! TD*
G04 #@! TO.C,REF\u002A\u002A*
X95690000Y-27436667D03*
G04 #@! TD*
G04 #@! TO.C,REF\u002A\u002A*
X63210000Y-47873333D03*
G04 #@! TD*
G04 #@! TO.C,REF\u002A\u002A*
X95690000Y-47873333D03*
G04 #@! TD*
G04 #@! TO.C,REF\u002A\u002A*
X64710000Y-50873333D03*
G04 #@! TD*
G04 #@! TO.C,REF\u002A\u002A*
X97190000Y-25436667D03*
G04 #@! TD*
G04 #@! TO.C,REF\u002A\u002A*
X95690000Y-25436667D03*
G04 #@! TD*
G04 #@! TO.C,REF\u002A\u002A*
X95690000Y-48873333D03*
G04 #@! TD*
G04 #@! TO.C,REF\u002A\u002A*
X97190000Y-48873333D03*
G04 #@! TD*
G04 #@! TO.C,REF\u002A\u002A*
X16240000Y-4750000D03*
G04 #@! TD*
G04 #@! TO.C,REF\u002A\u002A*
X97190000Y-50873333D03*
G04 #@! TD*
G04 #@! TO.C,REF\u002A\u002A*
X113680000Y-72560000D03*
G04 #@! TD*
G04 #@! TO.C,REF\u002A\u002A*
X63210000Y-51873333D03*
G04 #@! TD*
G04 #@! TO.C,REF\u002A\u002A*
X95690000Y-29436667D03*
G04 #@! TD*
G04 #@! TO.C,REF\u002A\u002A*
X95690000Y-28436667D03*
G04 #@! TD*
G04 #@! TO.C,REF\u002A\u002A*
X112680000Y-4750000D03*
G04 #@! TD*
G04 #@! TO.C,REF\u002A\u002A*
X64710000Y-29436667D03*
G04 #@! TD*
G04 #@! TO.C,REF\u002A\u002A*
X64710000Y-48873333D03*
G04 #@! TD*
G04 #@! TO.C,REF\u002A\u002A*
X63210000Y-26436667D03*
G04 #@! TD*
G04 #@! TO.C,REF\u002A\u002A*
X64710000Y-27436667D03*
G04 #@! TD*
G04 #@! TO.C,REF\u002A\u002A*
X14240000Y-4750000D03*
G04 #@! TD*
G04 #@! TO.C,REF\u002A\u002A*
X46720000Y-72560000D03*
G04 #@! TD*
G04 #@! TO.C,REF\u002A\u002A*
X81200000Y-4750000D03*
G04 #@! TD*
G04 #@! TO.C,REF\u002A\u002A*
X32230000Y-29436667D03*
G04 #@! TD*
G04 #@! TO.C,REF\u002A\u002A*
X97190000Y-26436667D03*
G04 #@! TD*
G04 #@! TO.C,REF\u002A\u002A*
X97190000Y-28436667D03*
G04 #@! TD*
G04 #@! TO.C,REF\u002A\u002A*
X113680000Y-4750000D03*
G04 #@! TD*
G04 #@! TO.C,REF\u002A\u002A*
X64710000Y-26436667D03*
G04 #@! TD*
G04 #@! TO.C,REF\u002A\u002A*
X32230000Y-49873333D03*
G04 #@! TD*
G04 #@! TO.C,REF\u002A\u002A*
X95690000Y-50873333D03*
G04 #@! TD*
G04 #@! TO.C,REF\u002A\u002A*
X13240000Y-4750000D03*
G04 #@! TD*
G04 #@! TO.C,REF\u002A\u002A*
X17240000Y-72560000D03*
G04 #@! TD*
G04 #@! TO.C,REF\u002A\u002A*
X97190000Y-47873333D03*
G04 #@! TD*
G04 #@! TO.C,REF\u002A\u002A*
X30730000Y-50873333D03*
G04 #@! TD*
G04 #@! TO.C,REF\u002A\u002A*
X64710000Y-49873333D03*
G04 #@! TD*
G04 #@! TO.C,REF\u002A\u002A*
X48720000Y-4750000D03*
G04 #@! TD*
G04 #@! TO.C,REF\u002A\u002A*
X97190000Y-49873333D03*
G04 #@! TD*
G04 #@! TO.C,REF\u002A\u002A*
X97190000Y-51873333D03*
G04 #@! TD*
G04 #@! TO.C,REF\u002A\u002A*
X13240000Y-72560000D03*
G04 #@! TD*
G04 #@! TO.C,REF\u002A\u002A*
X48720000Y-72560000D03*
G04 #@! TD*
G04 #@! TO.C,REF\u002A\u002A*
X32230000Y-50873333D03*
G04 #@! TD*
G04 #@! TO.C,REF\u002A\u002A*
X32230000Y-51873333D03*
G04 #@! TD*
G04 #@! TO.C,REF\u002A\u002A*
X49720000Y-4750000D03*
G04 #@! TD*
G04 #@! TO.C,REF\u002A\u002A*
X30730000Y-48873333D03*
G04 #@! TD*
G04 #@! TO.C,REF\u002A\u002A*
X30730000Y-25436667D03*
G04 #@! TD*
G04 #@! TO.C,REF\u002A\u002A*
X32230000Y-47873333D03*
G04 #@! TD*
D11*
G04 #@! TO.C,A1*
X50445000Y-70656000D03*
D12*
X50145000Y-67626000D03*
X45295000Y-67626000D03*
D11*
X44995000Y-70656000D03*
G04 #@! TD*
G04 #@! TO.C,A1*
X17965000Y-70656000D03*
D12*
X17665000Y-67626000D03*
X12815000Y-67626000D03*
D11*
X12515000Y-70656000D03*
G04 #@! TD*
G04 #@! TO.C,A1*
X115405000Y-70656000D03*
D12*
X115105000Y-67626000D03*
X110255000Y-67626000D03*
D11*
X109955000Y-70656000D03*
G04 #@! TD*
G04 #@! TO.C,A1*
X82925000Y-70656000D03*
D12*
X82625000Y-67626000D03*
X77775000Y-67626000D03*
D11*
X77475000Y-70656000D03*
G04 #@! TD*
D10*
G04 #@! TO.C,REF\u002A\u002A*
X79200000Y-4750000D03*
G04 #@! TD*
G04 #@! TO.C,REF\u002A\u002A*
X45720000Y-4750000D03*
G04 #@! TD*
G04 #@! TO.C,REF\u002A\u002A*
X114680000Y-4750000D03*
G04 #@! TD*
G04 #@! TO.C,REF\u002A\u002A*
X63210000Y-27436667D03*
G04 #@! TD*
G04 #@! TO.C,REF\u002A\u002A*
X78200000Y-4750000D03*
G04 #@! TD*
G04 #@! TO.C,REF\u002A\u002A*
X114680000Y-72560000D03*
G04 #@! TD*
G04 #@! TO.C,REF\u002A\u002A*
X47720000Y-4750000D03*
G04 #@! TD*
G04 #@! TO.C,REF\u002A\u002A*
X64710000Y-47873333D03*
G04 #@! TD*
G04 #@! TO.C,REF\u002A\u002A*
X30730000Y-26436667D03*
G04 #@! TD*
G04 #@! TO.C,REF\u002A\u002A*
X78200000Y-72560000D03*
G04 #@! TD*
G04 #@! TO.C,REF\u002A\u002A*
X110680000Y-72560000D03*
G04 #@! TD*
G04 #@! TO.C,REF\u002A\u002A*
X64710000Y-28436667D03*
G04 #@! TD*
G04 #@! TO.C,REF\u002A\u002A*
X14240000Y-72560000D03*
G04 #@! TD*
G04 #@! TO.C,REF\u002A\u002A*
X110680000Y-4750000D03*
G04 #@! TD*
G04 #@! TO.C,REF\u002A\u002A*
X30730000Y-28436667D03*
G04 #@! TD*
G04 #@! TO.C,REF\u002A\u002A*
X63210000Y-28436667D03*
G04 #@! TD*
G04 #@! TO.C,REF\u002A\u002A*
X64710000Y-25436667D03*
G04 #@! TD*
G04 #@! TO.C,REF\u002A\u002A*
X63210000Y-50873333D03*
G04 #@! TD*
G04 #@! TO.C,REF\u002A\u002A*
X80200000Y-72560000D03*
G04 #@! TD*
G04 #@! TO.C,REF\u002A\u002A*
X80200000Y-4750000D03*
G04 #@! TD*
G04 #@! TO.C,REF\u002A\u002A*
X79200000Y-72560000D03*
G04 #@! TD*
G04 #@! TO.C,REF\u002A\u002A*
X32230000Y-28436667D03*
G04 #@! TD*
G04 #@! TO.C,REF\u002A\u002A*
X17240000Y-4750000D03*
G04 #@! TD*
G04 #@! TO.C,REF\u002A\u002A*
X30730000Y-29436667D03*
G04 #@! TD*
G04 #@! TO.C,REF\u002A\u002A*
X15240000Y-72560000D03*
G04 #@! TD*
G04 #@! TO.C,REF\u002A\u002A*
X64710000Y-51873333D03*
G04 #@! TD*
G04 #@! TO.C,REF\u002A\u002A*
X97190000Y-29436667D03*
G04 #@! TD*
G04 #@! TO.C,REF\u002A\u002A*
X81200000Y-72560000D03*
G04 #@! TD*
G04 #@! TO.C,REF\u002A\u002A*
X32230000Y-26436667D03*
G04 #@! TD*
G04 #@! TO.C,REF\u002A\u002A*
X16240000Y-72560000D03*
G04 #@! TD*
G04 #@! TO.C,REF\u002A\u002A*
X82200000Y-72560000D03*
G04 #@! TD*
G04 #@! TO.C,REF\u002A\u002A*
X15240000Y-4750000D03*
G04 #@! TD*
D13*
G04 #@! TO.C,R8*
X58658000Y-10334000D03*
X60658000Y-10334000D03*
G04 #@! TD*
G04 #@! TO.C,R8*
X26178000Y-10334000D03*
X28178000Y-10334000D03*
G04 #@! TD*
G04 #@! TO.C,R8*
X91138000Y-10334000D03*
X93138000Y-10334000D03*
G04 #@! TD*
G04 #@! TO.C,R8*
X123618000Y-10334000D03*
X125618000Y-10334000D03*
G04 #@! TD*
D14*
G04 #@! TO.C,C8*
X93662000Y-24536500D03*
X93662000Y-26611500D03*
G04 #@! TD*
G04 #@! TO.C,C8*
X61182000Y-24536500D03*
X61182000Y-26611500D03*
G04 #@! TD*
G04 #@! TO.C,C8*
X28702000Y-24536500D03*
X28702000Y-26611500D03*
G04 #@! TD*
G04 #@! TO.C,C8*
X126142000Y-24536500D03*
X126142000Y-26611500D03*
G04 #@! TD*
G04 #@! TO.C,C2*
X19414000Y-47805900D03*
X19414000Y-49880900D03*
G04 #@! TD*
G04 #@! TO.C,C2*
X51894000Y-47805900D03*
X51894000Y-49880900D03*
G04 #@! TD*
G04 #@! TO.C,C2*
X84374000Y-47805900D03*
X84374000Y-49880900D03*
G04 #@! TD*
G04 #@! TO.C,C2*
X116854000Y-47805900D03*
X116854000Y-49880900D03*
G04 #@! TD*
D15*
G04 #@! TO.C,RV1*
X25786000Y-47843400D03*
D16*
X22536000Y-48843400D03*
D15*
X25786000Y-49843400D03*
G04 #@! TD*
G04 #@! TO.C,RV1*
X123226000Y-47843400D03*
D16*
X119976000Y-48843400D03*
D15*
X123226000Y-49843400D03*
G04 #@! TD*
G04 #@! TO.C,RV1*
X58266000Y-47843400D03*
D16*
X55016000Y-48843400D03*
D15*
X58266000Y-49843400D03*
G04 #@! TD*
G04 #@! TO.C,RV1*
X90746000Y-47843400D03*
D16*
X87496000Y-48843400D03*
D15*
X90746000Y-49843400D03*
G04 #@! TD*
D17*
G04 #@! TO.C,C9*
X93175500Y-7286000D03*
X91100500Y-7286000D03*
G04 #@! TD*
G04 #@! TO.C,C9*
X60695500Y-7286000D03*
X58620500Y-7286000D03*
G04 #@! TD*
G04 #@! TO.C,C9*
X125655500Y-7286000D03*
X123580500Y-7286000D03*
G04 #@! TD*
G04 #@! TO.C,C9*
X28215500Y-7286000D03*
X26140500Y-7286000D03*
G04 #@! TD*
D18*
G04 #@! TO.C,R13*
X61182000Y-45656000D03*
X61182000Y-47656000D03*
G04 #@! TD*
G04 #@! TO.C,R13*
X28702000Y-45656000D03*
X28702000Y-47656000D03*
G04 #@! TD*
G04 #@! TO.C,R13*
X93662000Y-45656000D03*
X93662000Y-47656000D03*
G04 #@! TD*
G04 #@! TO.C,R13*
X126142000Y-45656000D03*
X126142000Y-47656000D03*
G04 #@! TD*
D19*
G04 #@! TO.C,R4*
X28702000Y-42576000D03*
X28702000Y-40576000D03*
G04 #@! TD*
G04 #@! TO.C,R4*
X61182000Y-42576000D03*
X61182000Y-40576000D03*
G04 #@! TD*
G04 #@! TO.C,R4*
X93662000Y-42576000D03*
X93662000Y-40576000D03*
G04 #@! TD*
G04 #@! TO.C,R4*
X126142000Y-42576000D03*
X126142000Y-40576000D03*
G04 #@! TD*
D13*
G04 #@! TO.C,R1*
X84390000Y-52653400D03*
X86390000Y-52653400D03*
G04 #@! TD*
G04 #@! TO.C,R1*
X19430000Y-52653400D03*
X21430000Y-52653400D03*
G04 #@! TD*
G04 #@! TO.C,R1*
X51910000Y-52653400D03*
X53910000Y-52653400D03*
G04 #@! TD*
G04 #@! TO.C,R1*
X116870000Y-52653400D03*
X118870000Y-52653400D03*
G04 #@! TD*
D20*
G04 #@! TO.C,C3*
X56444500Y-52653400D03*
X58519500Y-52653400D03*
G04 #@! TD*
G04 #@! TO.C,C3*
X88924500Y-52653400D03*
X90999500Y-52653400D03*
G04 #@! TD*
G04 #@! TO.C,C3*
X121404500Y-52653400D03*
X123479500Y-52653400D03*
G04 #@! TD*
G04 #@! TO.C,C3*
X23964500Y-52653400D03*
X26039500Y-52653400D03*
G04 #@! TD*
D18*
G04 #@! TO.C,R2*
X28702000Y-50736000D03*
X28702000Y-52736000D03*
G04 #@! TD*
G04 #@! TO.C,R2*
X61182000Y-50736000D03*
X61182000Y-52736000D03*
G04 #@! TD*
G04 #@! TO.C,R2*
X126142000Y-50736000D03*
X126142000Y-52736000D03*
G04 #@! TD*
G04 #@! TO.C,R2*
X93662000Y-50736000D03*
X93662000Y-52736000D03*
G04 #@! TD*
D13*
G04 #@! TO.C,R6*
X19574000Y-25066000D03*
X21574000Y-25066000D03*
G04 #@! TD*
G04 #@! TO.C,R6*
X52054000Y-25066000D03*
X54054000Y-25066000D03*
G04 #@! TD*
G04 #@! TO.C,R6*
X84534000Y-25066000D03*
X86534000Y-25066000D03*
G04 #@! TD*
G04 #@! TO.C,R6*
X117014000Y-25066000D03*
X119014000Y-25066000D03*
G04 #@! TD*
D21*
G04 #@! TO.C,JP2*
X85930000Y-22272000D03*
X84630000Y-22272000D03*
G04 #@! TD*
G04 #@! TO.C,JP2*
X53450000Y-22272000D03*
X52150000Y-22272000D03*
G04 #@! TD*
G04 #@! TO.C,JP2*
X20970000Y-22272000D03*
X19670000Y-22272000D03*
G04 #@! TD*
G04 #@! TO.C,JP2*
X118410000Y-22272000D03*
X117110000Y-22272000D03*
G04 #@! TD*
D13*
G04 #@! TO.C,R3*
X117124000Y-55701400D03*
X119124000Y-55701400D03*
G04 #@! TD*
G04 #@! TO.C,R3*
X84644000Y-55701400D03*
X86644000Y-55701400D03*
G04 #@! TD*
G04 #@! TO.C,R3*
X19684000Y-55701400D03*
X21684000Y-55701400D03*
G04 #@! TD*
G04 #@! TO.C,R3*
X52164000Y-55701400D03*
X54164000Y-55701400D03*
G04 #@! TD*
D22*
G04 #@! TO.C,C5*
X51894000Y-60802900D03*
X51894000Y-58727900D03*
G04 #@! TD*
G04 #@! TO.C,C5*
X84374000Y-60802900D03*
X84374000Y-58727900D03*
G04 #@! TD*
G04 #@! TO.C,C5*
X116854000Y-60802900D03*
X116854000Y-58727900D03*
G04 #@! TD*
G04 #@! TO.C,C5*
X19414000Y-60802900D03*
X19414000Y-58727900D03*
G04 #@! TD*
D23*
G04 #@! TO.C,J9*
X35020000Y-68500000D03*
G04 #@! TD*
G04 #@! TO.C,J9*
X2540000Y-68500000D03*
G04 #@! TD*
G04 #@! TO.C,J9*
X67500000Y-68500000D03*
G04 #@! TD*
G04 #@! TO.C,J9*
X99980000Y-68500000D03*
G04 #@! TD*
D24*
G04 #@! TO.C,A3*
X76652000Y-31284000D03*
X79152000Y-33784000D03*
X76652000Y-36284000D03*
D25*
X70152000Y-57534000D03*
X77152000Y-57534000D03*
X77152000Y-23034000D03*
X70152000Y-23034000D03*
G04 #@! TD*
D24*
G04 #@! TO.C,A3*
X11692000Y-31284000D03*
X14192000Y-33784000D03*
X11692000Y-36284000D03*
D25*
X5192000Y-57534000D03*
X12192000Y-57534000D03*
X12192000Y-23034000D03*
X5192000Y-23034000D03*
G04 #@! TD*
D24*
G04 #@! TO.C,A3*
X109132000Y-31284000D03*
X111632000Y-33784000D03*
X109132000Y-36284000D03*
D25*
X102632000Y-57534000D03*
X109632000Y-57534000D03*
X109632000Y-23034000D03*
X102632000Y-23034000D03*
G04 #@! TD*
D24*
G04 #@! TO.C,A3*
X44172000Y-31284000D03*
X46672000Y-33784000D03*
X44172000Y-36284000D03*
D25*
X37672000Y-57534000D03*
X44672000Y-57534000D03*
X44672000Y-23034000D03*
X37672000Y-23034000D03*
G04 #@! TD*
D26*
G04 #@! TO.C,R11*
X21574000Y-42338000D03*
X19574000Y-42338000D03*
G04 #@! TD*
G04 #@! TO.C,R11*
X54054000Y-42338000D03*
X52054000Y-42338000D03*
G04 #@! TD*
G04 #@! TO.C,R11*
X86534000Y-42338000D03*
X84534000Y-42338000D03*
G04 #@! TD*
G04 #@! TO.C,R11*
X119014000Y-42338000D03*
X117014000Y-42338000D03*
G04 #@! TD*
G04 #@! TO.C,R12*
X90852000Y-42338000D03*
X88852000Y-42338000D03*
G04 #@! TD*
G04 #@! TO.C,R12*
X58372000Y-42338000D03*
X56372000Y-42338000D03*
G04 #@! TD*
G04 #@! TO.C,R12*
X123332000Y-42338000D03*
X121332000Y-42338000D03*
G04 #@! TD*
G04 #@! TO.C,R12*
X25892000Y-42338000D03*
X23892000Y-42338000D03*
G04 #@! TD*
D13*
G04 #@! TO.C,R5*
X24146000Y-25066000D03*
X26146000Y-25066000D03*
G04 #@! TD*
G04 #@! TO.C,R5*
X56626000Y-25066000D03*
X58626000Y-25066000D03*
G04 #@! TD*
G04 #@! TO.C,R5*
X121586000Y-25066000D03*
X123586000Y-25066000D03*
G04 #@! TD*
G04 #@! TO.C,R5*
X89106000Y-25066000D03*
X91106000Y-25066000D03*
G04 #@! TD*
D23*
G04 #@! TO.C,J4*
X42386000Y-8810000D03*
G04 #@! TD*
G04 #@! TO.C,J4*
X74866000Y-8810000D03*
G04 #@! TD*
G04 #@! TO.C,J4*
X107346000Y-8810000D03*
G04 #@! TD*
G04 #@! TO.C,J4*
X9906000Y-8810000D03*
G04 #@! TD*
D26*
G04 #@! TO.C,R9*
X56086000Y-10334000D03*
X54086000Y-10334000D03*
G04 #@! TD*
G04 #@! TO.C,R9*
X23606000Y-10334000D03*
X21606000Y-10334000D03*
G04 #@! TD*
G04 #@! TO.C,R9*
X88566000Y-10334000D03*
X86566000Y-10334000D03*
G04 #@! TD*
G04 #@! TO.C,R9*
X121046000Y-10334000D03*
X119046000Y-10334000D03*
G04 #@! TD*
D27*
G04 #@! TO.C,A2*
X11176000Y-16430000D03*
D28*
X13716000Y-16430000D03*
X16256000Y-16430000D03*
X18796000Y-16430000D03*
X21336000Y-16430000D03*
X23876000Y-16430000D03*
X26416000Y-16430000D03*
X28956000Y-16430000D03*
G04 #@! TD*
D27*
G04 #@! TO.C,A2*
X43656000Y-16430000D03*
D28*
X46196000Y-16430000D03*
X48736000Y-16430000D03*
X51276000Y-16430000D03*
X53816000Y-16430000D03*
X56356000Y-16430000D03*
X58896000Y-16430000D03*
X61436000Y-16430000D03*
G04 #@! TD*
D27*
G04 #@! TO.C,A2*
X76136000Y-16430000D03*
D28*
X78676000Y-16430000D03*
X81216000Y-16430000D03*
X83756000Y-16430000D03*
X86296000Y-16430000D03*
X88836000Y-16430000D03*
X91376000Y-16430000D03*
X93916000Y-16430000D03*
G04 #@! TD*
D27*
G04 #@! TO.C,A2*
X108616000Y-16430000D03*
D28*
X111156000Y-16430000D03*
X113696000Y-16430000D03*
X116236000Y-16430000D03*
X118776000Y-16430000D03*
X121316000Y-16430000D03*
X123856000Y-16430000D03*
X126396000Y-16430000D03*
G04 #@! TD*
D23*
G04 #@! TO.C,J10*
X9144000Y-68500000D03*
G04 #@! TD*
G04 #@! TO.C,J10*
X41624000Y-68500000D03*
G04 #@! TD*
G04 #@! TO.C,J10*
X74104000Y-68500000D03*
G04 #@! TD*
G04 #@! TO.C,J10*
X106584000Y-68500000D03*
G04 #@! TD*
D20*
G04 #@! TO.C,C6*
X84496500Y-45132000D03*
X86571500Y-45132000D03*
G04 #@! TD*
G04 #@! TO.C,C6*
X52016500Y-45132000D03*
X54091500Y-45132000D03*
G04 #@! TD*
G04 #@! TO.C,C6*
X116976500Y-45132000D03*
X119051500Y-45132000D03*
G04 #@! TD*
G04 #@! TO.C,C6*
X19536500Y-45132000D03*
X21611500Y-45132000D03*
G04 #@! TD*
D23*
G04 #@! TO.C,J11*
X125380000Y-68500000D03*
G04 #@! TD*
G04 #@! TO.C,J11*
X60420000Y-68500000D03*
G04 #@! TD*
G04 #@! TO.C,J11*
X92900000Y-68500000D03*
G04 #@! TD*
G04 #@! TO.C,J11*
X27940000Y-68500000D03*
G04 #@! TD*
G04 #@! TO.C,J12*
X21319000Y-68500000D03*
G04 #@! TD*
G04 #@! TO.C,J12*
X86279000Y-68500000D03*
G04 #@! TD*
G04 #@! TO.C,J12*
X53799000Y-68500000D03*
G04 #@! TD*
G04 #@! TO.C,J12*
X118759000Y-68500000D03*
G04 #@! TD*
D29*
G04 #@! TO.C,U2*
X122315000Y-55766400D03*
X123585000Y-55766400D03*
X124855000Y-55766400D03*
X126125000Y-55766400D03*
X126125000Y-60716400D03*
X124855000Y-60716400D03*
X123585000Y-60716400D03*
X122315000Y-60716400D03*
G04 #@! TD*
G04 #@! TO.C,U2*
X89835000Y-55766400D03*
X91105000Y-55766400D03*
X92375000Y-55766400D03*
X93645000Y-55766400D03*
X93645000Y-60716400D03*
X92375000Y-60716400D03*
X91105000Y-60716400D03*
X89835000Y-60716400D03*
G04 #@! TD*
G04 #@! TO.C,U2*
X24875000Y-55766400D03*
X26145000Y-55766400D03*
X27415000Y-55766400D03*
X28685000Y-55766400D03*
X28685000Y-60716400D03*
X27415000Y-60716400D03*
X26145000Y-60716400D03*
X24875000Y-60716400D03*
G04 #@! TD*
G04 #@! TO.C,U2*
X57355000Y-55766400D03*
X58625000Y-55766400D03*
X59895000Y-55766400D03*
X61165000Y-55766400D03*
X61165000Y-60716400D03*
X59895000Y-60716400D03*
X58625000Y-60716400D03*
X57355000Y-60716400D03*
G04 #@! TD*
D30*
G04 #@! TO.C,J1*
X123711000Y-37156000D03*
X123711000Y-36056000D03*
X123711000Y-34956000D03*
X123711000Y-33856000D03*
X123711000Y-32756000D03*
X123711000Y-31656000D03*
X123711000Y-30556000D03*
X123711000Y-29456000D03*
D31*
X120961000Y-39081000D03*
D32*
X120756500Y-28131000D03*
D33*
X117571000Y-28131000D03*
D34*
X119611000Y-39081000D03*
D33*
X117001000Y-39081000D03*
D35*
X116176000Y-31461000D03*
X116176000Y-35651000D03*
G04 #@! TD*
D30*
G04 #@! TO.C,J1*
X26271000Y-37156000D03*
X26271000Y-36056000D03*
X26271000Y-34956000D03*
X26271000Y-33856000D03*
X26271000Y-32756000D03*
X26271000Y-31656000D03*
X26271000Y-30556000D03*
X26271000Y-29456000D03*
D31*
X23521000Y-39081000D03*
D32*
X23316500Y-28131000D03*
D33*
X20131000Y-28131000D03*
D34*
X22171000Y-39081000D03*
D33*
X19561000Y-39081000D03*
D35*
X18736000Y-31461000D03*
X18736000Y-35651000D03*
G04 #@! TD*
D30*
G04 #@! TO.C,J1*
X91231000Y-37156000D03*
X91231000Y-36056000D03*
X91231000Y-34956000D03*
X91231000Y-33856000D03*
X91231000Y-32756000D03*
X91231000Y-31656000D03*
X91231000Y-30556000D03*
X91231000Y-29456000D03*
D31*
X88481000Y-39081000D03*
D32*
X88276500Y-28131000D03*
D33*
X85091000Y-28131000D03*
D34*
X87131000Y-39081000D03*
D33*
X84521000Y-39081000D03*
D35*
X83696000Y-31461000D03*
X83696000Y-35651000D03*
G04 #@! TD*
D30*
G04 #@! TO.C,J1*
X58751000Y-37156000D03*
X58751000Y-36056000D03*
X58751000Y-34956000D03*
X58751000Y-33856000D03*
X58751000Y-32756000D03*
X58751000Y-31656000D03*
X58751000Y-30556000D03*
X58751000Y-29456000D03*
D31*
X56001000Y-39081000D03*
D32*
X55796500Y-28131000D03*
D33*
X52611000Y-28131000D03*
D34*
X54651000Y-39081000D03*
D33*
X52041000Y-39081000D03*
D35*
X51216000Y-31461000D03*
X51216000Y-35651000D03*
G04 #@! TD*
D23*
G04 #@! TO.C,J3*
X114712000Y-8810000D03*
G04 #@! TD*
G04 #@! TO.C,J3*
X49752000Y-8810000D03*
G04 #@! TD*
G04 #@! TO.C,J3*
X17272000Y-8810000D03*
G04 #@! TD*
G04 #@! TO.C,J3*
X82232000Y-8810000D03*
G04 #@! TD*
D20*
G04 #@! TO.C,C10*
X86528500Y-7286000D03*
X88603500Y-7286000D03*
G04 #@! TD*
G04 #@! TO.C,C10*
X54048500Y-7286000D03*
X56123500Y-7286000D03*
G04 #@! TD*
G04 #@! TO.C,C10*
X119008500Y-7286000D03*
X121083500Y-7286000D03*
G04 #@! TD*
G04 #@! TO.C,C10*
X21568500Y-7286000D03*
X23643500Y-7286000D03*
G04 #@! TD*
D14*
G04 #@! TO.C,C1*
X28702000Y-19456500D03*
X28702000Y-21531500D03*
G04 #@! TD*
G04 #@! TO.C,C1*
X126142000Y-19456500D03*
X126142000Y-21531500D03*
G04 #@! TD*
G04 #@! TO.C,C1*
X61182000Y-19456500D03*
X61182000Y-21531500D03*
G04 #@! TD*
G04 #@! TO.C,C1*
X93662000Y-19456500D03*
X93662000Y-21531500D03*
G04 #@! TD*
D26*
G04 #@! TO.C,R10*
X20558000Y-19478000D03*
X18558000Y-19478000D03*
G04 #@! TD*
G04 #@! TO.C,R10*
X85518000Y-19478000D03*
X83518000Y-19478000D03*
G04 #@! TD*
G04 #@! TO.C,R10*
X53038000Y-19478000D03*
X51038000Y-19478000D03*
G04 #@! TD*
G04 #@! TO.C,R10*
X117998000Y-19478000D03*
X115998000Y-19478000D03*
G04 #@! TD*
D17*
G04 #@! TO.C,C7*
X25929500Y-45132000D03*
X23854500Y-45132000D03*
G04 #@! TD*
G04 #@! TO.C,C7*
X90889500Y-45132000D03*
X88814500Y-45132000D03*
G04 #@! TD*
G04 #@! TO.C,C7*
X123369500Y-45132000D03*
X121294500Y-45132000D03*
G04 #@! TD*
G04 #@! TO.C,C7*
X58409500Y-45132000D03*
X56334500Y-45132000D03*
G04 #@! TD*
D21*
G04 #@! TO.C,JP1*
X60816000Y-13509000D03*
X59516000Y-13509000D03*
G04 #@! TD*
G04 #@! TO.C,JP1*
X28336000Y-13509000D03*
X27036000Y-13509000D03*
G04 #@! TD*
G04 #@! TO.C,JP1*
X125776000Y-13509000D03*
X124476000Y-13509000D03*
G04 #@! TD*
G04 #@! TO.C,JP1*
X93296000Y-13509000D03*
X91996000Y-13509000D03*
G04 #@! TD*
D23*
G04 #@! TO.C,J2*
X67500000Y-8810000D03*
G04 #@! TD*
G04 #@! TO.C,J2*
X2540000Y-8810000D03*
G04 #@! TD*
G04 #@! TO.C,J2*
X35020000Y-8810000D03*
G04 #@! TD*
G04 #@! TO.C,J2*
X99980000Y-8810000D03*
G04 #@! TD*
D36*
G04 #@! TO.C,U1*
X90548000Y-22352000D03*
X89598000Y-22352000D03*
X88648000Y-22352000D03*
X88648000Y-19652000D03*
X90548000Y-19652000D03*
G04 #@! TD*
G04 #@! TO.C,U1*
X25588000Y-22352000D03*
X24638000Y-22352000D03*
X23688000Y-22352000D03*
X23688000Y-19652000D03*
X25588000Y-19652000D03*
G04 #@! TD*
G04 #@! TO.C,U1*
X58068000Y-22352000D03*
X57118000Y-22352000D03*
X56168000Y-22352000D03*
X56168000Y-19652000D03*
X58068000Y-19652000D03*
G04 #@! TD*
G04 #@! TO.C,U1*
X123028000Y-22352000D03*
X122078000Y-22352000D03*
X121128000Y-22352000D03*
X121128000Y-19652000D03*
X123028000Y-19652000D03*
G04 #@! TD*
D22*
G04 #@! TO.C,C4*
X54688000Y-60802900D03*
X54688000Y-58727900D03*
G04 #@! TD*
G04 #@! TO.C,C4*
X22208000Y-60802900D03*
X22208000Y-58727900D03*
G04 #@! TD*
G04 #@! TO.C,C4*
X87168000Y-60802900D03*
X87168000Y-58727900D03*
G04 #@! TD*
G04 #@! TO.C,C4*
X119648000Y-60802900D03*
X119648000Y-58727900D03*
G04 #@! TD*
M02*
