G04 #@! TF.GenerationSoftware,KiCad,Pcbnew,7.0.1*
G04 #@! TF.CreationDate,2023-04-19T14:44:16-07:00*
G04 #@! TF.ProjectId,momentum_panel,6d6f6d65-6e74-4756-9d5f-70616e656c2e,A*
G04 #@! TF.SameCoordinates,Original*
G04 #@! TF.FileFunction,Soldermask,Top*
G04 #@! TF.FilePolarity,Negative*
%FSLAX46Y46*%
G04 Gerber Fmt 4.6, Leading zero omitted, Abs format (unit mm)*
G04 Created by KiCad (PCBNEW 7.0.1) date 2023-04-19 14:44:16*
%MOMM*%
%LPD*%
G01*
G04 APERTURE LIST*
%ADD10C,0.500000*%
%ADD11R,4.000000X7.000000*%
%ADD12O,1.800000X1.800000*%
%ADD13O,1.500000X1.500000*%
%ADD14R,3.500000X1.700000*%
%ADD15C,2.000000*%
%ADD16R,1.700000X1.700000*%
%ADD17O,1.700000X1.700000*%
G04 APERTURE END LIST*
D10*
G04 #@! TO.C,REF\u002A\u002A*
X47720000Y-72560000D03*
G04 #@! TD*
G04 #@! TO.C,REF\u002A\u002A*
X46720000Y-4750000D03*
G04 #@! TD*
G04 #@! TO.C,REF\u002A\u002A*
X82200000Y-4750000D03*
G04 #@! TD*
G04 #@! TO.C,REF\u002A\u002A*
X30730000Y-49873333D03*
G04 #@! TD*
G04 #@! TO.C,REF\u002A\u002A*
X32230000Y-25436667D03*
G04 #@! TD*
G04 #@! TO.C,REF\u002A\u002A*
X30730000Y-51873333D03*
G04 #@! TD*
G04 #@! TO.C,REF\u002A\u002A*
X63210000Y-29436667D03*
G04 #@! TD*
G04 #@! TO.C,REF\u002A\u002A*
X63210000Y-48873333D03*
G04 #@! TD*
G04 #@! TO.C,REF\u002A\u002A*
X30730000Y-27436667D03*
G04 #@! TD*
G04 #@! TO.C,REF\u002A\u002A*
X111680000Y-72560000D03*
G04 #@! TD*
G04 #@! TO.C,REF\u002A\u002A*
X63210000Y-49873333D03*
G04 #@! TD*
G04 #@! TO.C,REF\u002A\u002A*
X112680000Y-72560000D03*
G04 #@! TD*
G04 #@! TO.C,REF\u002A\u002A*
X111680000Y-4750000D03*
G04 #@! TD*
G04 #@! TO.C,REF\u002A\u002A*
X45720000Y-72560000D03*
G04 #@! TD*
G04 #@! TO.C,REF\u002A\u002A*
X63210000Y-25436667D03*
G04 #@! TD*
G04 #@! TO.C,REF\u002A\u002A*
X95690000Y-51873333D03*
G04 #@! TD*
G04 #@! TO.C,REF\u002A\u002A*
X32230000Y-27436667D03*
G04 #@! TD*
G04 #@! TO.C,REF\u002A\u002A*
X95690000Y-26436667D03*
G04 #@! TD*
G04 #@! TO.C,REF\u002A\u002A*
X97190000Y-27436667D03*
G04 #@! TD*
G04 #@! TO.C,REF\u002A\u002A*
X30730000Y-47873333D03*
G04 #@! TD*
G04 #@! TO.C,REF\u002A\u002A*
X32230000Y-48873333D03*
G04 #@! TD*
G04 #@! TO.C,REF\u002A\u002A*
X95690000Y-49873333D03*
G04 #@! TD*
G04 #@! TO.C,REF\u002A\u002A*
X49720000Y-72560000D03*
G04 #@! TD*
G04 #@! TO.C,REF\u002A\u002A*
X95690000Y-27436667D03*
G04 #@! TD*
G04 #@! TO.C,REF\u002A\u002A*
X63210000Y-47873333D03*
G04 #@! TD*
D11*
G04 #@! TO.C,J8*
X2540000Y-8810000D03*
G04 #@! TD*
G04 #@! TO.C,J8*
X35020000Y-8810000D03*
G04 #@! TD*
G04 #@! TO.C,J8*
X67500000Y-8810000D03*
G04 #@! TD*
G04 #@! TO.C,J8*
X99980000Y-8810000D03*
G04 #@! TD*
D10*
G04 #@! TO.C,REF\u002A\u002A*
X95690000Y-47873333D03*
G04 #@! TD*
G04 #@! TO.C,REF\u002A\u002A*
X64710000Y-50873333D03*
G04 #@! TD*
G04 #@! TO.C,REF\u002A\u002A*
X97190000Y-25436667D03*
G04 #@! TD*
G04 #@! TO.C,REF\u002A\u002A*
X95690000Y-25436667D03*
G04 #@! TD*
G04 #@! TO.C,REF\u002A\u002A*
X95690000Y-48873333D03*
G04 #@! TD*
G04 #@! TO.C,REF\u002A\u002A*
X97190000Y-48873333D03*
G04 #@! TD*
G04 #@! TO.C,REF\u002A\u002A*
X16240000Y-4750000D03*
G04 #@! TD*
G04 #@! TO.C,REF\u002A\u002A*
X97190000Y-50873333D03*
G04 #@! TD*
G04 #@! TO.C,REF\u002A\u002A*
X113680000Y-72560000D03*
G04 #@! TD*
G04 #@! TO.C,REF\u002A\u002A*
X63210000Y-51873333D03*
G04 #@! TD*
G04 #@! TO.C,REF\u002A\u002A*
X95690000Y-29436667D03*
G04 #@! TD*
G04 #@! TO.C,REF\u002A\u002A*
X95690000Y-28436667D03*
G04 #@! TD*
G04 #@! TO.C,REF\u002A\u002A*
X112680000Y-4750000D03*
G04 #@! TD*
G04 #@! TO.C,REF\u002A\u002A*
X64710000Y-29436667D03*
G04 #@! TD*
G04 #@! TO.C,REF\u002A\u002A*
X64710000Y-48873333D03*
G04 #@! TD*
G04 #@! TO.C,REF\u002A\u002A*
X63210000Y-26436667D03*
G04 #@! TD*
G04 #@! TO.C,REF\u002A\u002A*
X64710000Y-27436667D03*
G04 #@! TD*
G04 #@! TO.C,REF\u002A\u002A*
X14240000Y-4750000D03*
G04 #@! TD*
G04 #@! TO.C,REF\u002A\u002A*
X46720000Y-72560000D03*
G04 #@! TD*
G04 #@! TO.C,REF\u002A\u002A*
X81200000Y-4750000D03*
G04 #@! TD*
G04 #@! TO.C,REF\u002A\u002A*
X32230000Y-29436667D03*
G04 #@! TD*
G04 #@! TO.C,REF\u002A\u002A*
X97190000Y-26436667D03*
G04 #@! TD*
G04 #@! TO.C,REF\u002A\u002A*
X97190000Y-28436667D03*
G04 #@! TD*
G04 #@! TO.C,REF\u002A\u002A*
X113680000Y-4750000D03*
G04 #@! TD*
G04 #@! TO.C,REF\u002A\u002A*
X64710000Y-26436667D03*
G04 #@! TD*
G04 #@! TO.C,REF\u002A\u002A*
X32230000Y-49873333D03*
G04 #@! TD*
G04 #@! TO.C,REF\u002A\u002A*
X95690000Y-50873333D03*
G04 #@! TD*
G04 #@! TO.C,REF\u002A\u002A*
X13240000Y-4750000D03*
G04 #@! TD*
G04 #@! TO.C,REF\u002A\u002A*
X17240000Y-72560000D03*
G04 #@! TD*
G04 #@! TO.C,REF\u002A\u002A*
X97190000Y-47873333D03*
G04 #@! TD*
G04 #@! TO.C,REF\u002A\u002A*
X30730000Y-50873333D03*
G04 #@! TD*
G04 #@! TO.C,REF\u002A\u002A*
X64710000Y-49873333D03*
G04 #@! TD*
G04 #@! TO.C,REF\u002A\u002A*
X48720000Y-4750000D03*
G04 #@! TD*
G04 #@! TO.C,REF\u002A\u002A*
X97190000Y-49873333D03*
G04 #@! TD*
G04 #@! TO.C,REF\u002A\u002A*
X97190000Y-51873333D03*
G04 #@! TD*
G04 #@! TO.C,REF\u002A\u002A*
X13240000Y-72560000D03*
G04 #@! TD*
G04 #@! TO.C,REF\u002A\u002A*
X48720000Y-72560000D03*
G04 #@! TD*
G04 #@! TO.C,REF\u002A\u002A*
X32230000Y-50873333D03*
G04 #@! TD*
G04 #@! TO.C,REF\u002A\u002A*
X32230000Y-51873333D03*
G04 #@! TD*
G04 #@! TO.C,REF\u002A\u002A*
X49720000Y-4750000D03*
G04 #@! TD*
G04 #@! TO.C,REF\u002A\u002A*
X30730000Y-48873333D03*
G04 #@! TD*
G04 #@! TO.C,REF\u002A\u002A*
X30730000Y-25436667D03*
G04 #@! TD*
G04 #@! TO.C,REF\u002A\u002A*
X32230000Y-47873333D03*
G04 #@! TD*
D12*
G04 #@! TO.C,A1*
X50445000Y-70656000D03*
D13*
X50145000Y-67626000D03*
X45295000Y-67626000D03*
D12*
X44995000Y-70656000D03*
D14*
X57510000Y-70786000D03*
X57510000Y-68246000D03*
X57510000Y-65706000D03*
X57510000Y-63166000D03*
X57510000Y-60626000D03*
X57510000Y-58086000D03*
X57510000Y-55546000D03*
X57510000Y-53006000D03*
X57510000Y-50466000D03*
X57510000Y-47926000D03*
X57510000Y-45386000D03*
X57510000Y-42846000D03*
X57510000Y-40306000D03*
X57510000Y-37766000D03*
X57510000Y-35226000D03*
X57510000Y-32686000D03*
X57510000Y-30146000D03*
X57510000Y-27606000D03*
X57510000Y-25066000D03*
X57510000Y-22526000D03*
X37930000Y-22526000D03*
X37930000Y-25066000D03*
X37930000Y-27606000D03*
X37930000Y-30146000D03*
X37930000Y-32686000D03*
X37930000Y-35226000D03*
X37930000Y-37766000D03*
X37930000Y-40306000D03*
X37930000Y-42846000D03*
X37930000Y-45386000D03*
X37930000Y-47926000D03*
X37930000Y-50466000D03*
X37930000Y-53006000D03*
X37930000Y-55546000D03*
X37930000Y-58086000D03*
X37930000Y-60626000D03*
X37930000Y-63166000D03*
X37930000Y-65706000D03*
X37930000Y-68246000D03*
X37930000Y-70786000D03*
G04 #@! TD*
D12*
G04 #@! TO.C,A1*
X17965000Y-70656000D03*
D13*
X17665000Y-67626000D03*
X12815000Y-67626000D03*
D12*
X12515000Y-70656000D03*
D14*
X25030000Y-70786000D03*
X25030000Y-68246000D03*
X25030000Y-65706000D03*
X25030000Y-63166000D03*
X25030000Y-60626000D03*
X25030000Y-58086000D03*
X25030000Y-55546000D03*
X25030000Y-53006000D03*
X25030000Y-50466000D03*
X25030000Y-47926000D03*
X25030000Y-45386000D03*
X25030000Y-42846000D03*
X25030000Y-40306000D03*
X25030000Y-37766000D03*
X25030000Y-35226000D03*
X25030000Y-32686000D03*
X25030000Y-30146000D03*
X25030000Y-27606000D03*
X25030000Y-25066000D03*
X25030000Y-22526000D03*
X5450000Y-22526000D03*
X5450000Y-25066000D03*
X5450000Y-27606000D03*
X5450000Y-30146000D03*
X5450000Y-32686000D03*
X5450000Y-35226000D03*
X5450000Y-37766000D03*
X5450000Y-40306000D03*
X5450000Y-42846000D03*
X5450000Y-45386000D03*
X5450000Y-47926000D03*
X5450000Y-50466000D03*
X5450000Y-53006000D03*
X5450000Y-55546000D03*
X5450000Y-58086000D03*
X5450000Y-60626000D03*
X5450000Y-63166000D03*
X5450000Y-65706000D03*
X5450000Y-68246000D03*
X5450000Y-70786000D03*
G04 #@! TD*
D12*
G04 #@! TO.C,A1*
X115405000Y-70656000D03*
D13*
X115105000Y-67626000D03*
X110255000Y-67626000D03*
D12*
X109955000Y-70656000D03*
D14*
X122470000Y-70786000D03*
X122470000Y-68246000D03*
X122470000Y-65706000D03*
X122470000Y-63166000D03*
X122470000Y-60626000D03*
X122470000Y-58086000D03*
X122470000Y-55546000D03*
X122470000Y-53006000D03*
X122470000Y-50466000D03*
X122470000Y-47926000D03*
X122470000Y-45386000D03*
X122470000Y-42846000D03*
X122470000Y-40306000D03*
X122470000Y-37766000D03*
X122470000Y-35226000D03*
X122470000Y-32686000D03*
X122470000Y-30146000D03*
X122470000Y-27606000D03*
X122470000Y-25066000D03*
X122470000Y-22526000D03*
X102890000Y-22526000D03*
X102890000Y-25066000D03*
X102890000Y-27606000D03*
X102890000Y-30146000D03*
X102890000Y-32686000D03*
X102890000Y-35226000D03*
X102890000Y-37766000D03*
X102890000Y-40306000D03*
X102890000Y-42846000D03*
X102890000Y-45386000D03*
X102890000Y-47926000D03*
X102890000Y-50466000D03*
X102890000Y-53006000D03*
X102890000Y-55546000D03*
X102890000Y-58086000D03*
X102890000Y-60626000D03*
X102890000Y-63166000D03*
X102890000Y-65706000D03*
X102890000Y-68246000D03*
X102890000Y-70786000D03*
G04 #@! TD*
D12*
G04 #@! TO.C,A1*
X82925000Y-70656000D03*
D13*
X82625000Y-67626000D03*
X77775000Y-67626000D03*
D12*
X77475000Y-70656000D03*
D14*
X89990000Y-70786000D03*
X89990000Y-68246000D03*
X89990000Y-65706000D03*
X89990000Y-63166000D03*
X89990000Y-60626000D03*
X89990000Y-58086000D03*
X89990000Y-55546000D03*
X89990000Y-53006000D03*
X89990000Y-50466000D03*
X89990000Y-47926000D03*
X89990000Y-45386000D03*
X89990000Y-42846000D03*
X89990000Y-40306000D03*
X89990000Y-37766000D03*
X89990000Y-35226000D03*
X89990000Y-32686000D03*
X89990000Y-30146000D03*
X89990000Y-27606000D03*
X89990000Y-25066000D03*
X89990000Y-22526000D03*
X70410000Y-22526000D03*
X70410000Y-25066000D03*
X70410000Y-27606000D03*
X70410000Y-30146000D03*
X70410000Y-32686000D03*
X70410000Y-35226000D03*
X70410000Y-37766000D03*
X70410000Y-40306000D03*
X70410000Y-42846000D03*
X70410000Y-45386000D03*
X70410000Y-47926000D03*
X70410000Y-50466000D03*
X70410000Y-53006000D03*
X70410000Y-55546000D03*
X70410000Y-58086000D03*
X70410000Y-60626000D03*
X70410000Y-63166000D03*
X70410000Y-65706000D03*
X70410000Y-68246000D03*
X70410000Y-70786000D03*
G04 #@! TD*
D10*
G04 #@! TO.C,REF\u002A\u002A*
X79200000Y-4750000D03*
G04 #@! TD*
G04 #@! TO.C,REF\u002A\u002A*
X45720000Y-4750000D03*
G04 #@! TD*
G04 #@! TO.C,REF\u002A\u002A*
X114680000Y-4750000D03*
G04 #@! TD*
G04 #@! TO.C,REF\u002A\u002A*
X63210000Y-27436667D03*
G04 #@! TD*
G04 #@! TO.C,REF\u002A\u002A*
X78200000Y-4750000D03*
G04 #@! TD*
G04 #@! TO.C,REF\u002A\u002A*
X114680000Y-72560000D03*
G04 #@! TD*
G04 #@! TO.C,REF\u002A\u002A*
X47720000Y-4750000D03*
G04 #@! TD*
G04 #@! TO.C,REF\u002A\u002A*
X64710000Y-47873333D03*
G04 #@! TD*
D11*
G04 #@! TO.C,J6*
X60420000Y-8810000D03*
G04 #@! TD*
G04 #@! TO.C,J6*
X92900000Y-8810000D03*
G04 #@! TD*
G04 #@! TO.C,J6*
X27940000Y-8810000D03*
G04 #@! TD*
G04 #@! TO.C,J6*
X125380000Y-8810000D03*
G04 #@! TD*
D10*
G04 #@! TO.C,REF\u002A\u002A*
X30730000Y-26436667D03*
G04 #@! TD*
G04 #@! TO.C,REF\u002A\u002A*
X78200000Y-72560000D03*
G04 #@! TD*
G04 #@! TO.C,REF\u002A\u002A*
X110680000Y-72560000D03*
G04 #@! TD*
D11*
G04 #@! TO.C,J7*
X43402000Y-8810000D03*
G04 #@! TD*
G04 #@! TO.C,J7*
X108362000Y-8810000D03*
G04 #@! TD*
G04 #@! TO.C,J7*
X10922000Y-8810000D03*
G04 #@! TD*
G04 #@! TO.C,J7*
X75882000Y-8810000D03*
G04 #@! TD*
D10*
G04 #@! TO.C,REF\u002A\u002A*
X64710000Y-28436667D03*
G04 #@! TD*
G04 #@! TO.C,REF\u002A\u002A*
X14240000Y-72560000D03*
G04 #@! TD*
G04 #@! TO.C,REF\u002A\u002A*
X110680000Y-4750000D03*
G04 #@! TD*
G04 #@! TO.C,REF\u002A\u002A*
X30730000Y-28436667D03*
G04 #@! TD*
G04 #@! TO.C,REF\u002A\u002A*
X63210000Y-28436667D03*
G04 #@! TD*
G04 #@! TO.C,REF\u002A\u002A*
X64710000Y-25436667D03*
G04 #@! TD*
G04 #@! TO.C,REF\u002A\u002A*
X63210000Y-50873333D03*
G04 #@! TD*
G04 #@! TO.C,REF\u002A\u002A*
X80200000Y-72560000D03*
G04 #@! TD*
G04 #@! TO.C,REF\u002A\u002A*
X80200000Y-4750000D03*
G04 #@! TD*
D11*
G04 #@! TO.C,J5*
X116998000Y-8810000D03*
G04 #@! TD*
G04 #@! TO.C,J5*
X84518000Y-8810000D03*
G04 #@! TD*
G04 #@! TO.C,J5*
X52038000Y-8810000D03*
G04 #@! TD*
G04 #@! TO.C,J5*
X19558000Y-8810000D03*
G04 #@! TD*
D10*
G04 #@! TO.C,REF\u002A\u002A*
X79200000Y-72560000D03*
G04 #@! TD*
G04 #@! TO.C,REF\u002A\u002A*
X32230000Y-28436667D03*
G04 #@! TD*
G04 #@! TO.C,REF\u002A\u002A*
X17240000Y-4750000D03*
G04 #@! TD*
G04 #@! TO.C,REF\u002A\u002A*
X30730000Y-29436667D03*
G04 #@! TD*
G04 #@! TO.C,REF\u002A\u002A*
X15240000Y-72560000D03*
G04 #@! TD*
G04 #@! TO.C,REF\u002A\u002A*
X64710000Y-51873333D03*
G04 #@! TD*
G04 #@! TO.C,REF\u002A\u002A*
X97190000Y-29436667D03*
G04 #@! TD*
G04 #@! TO.C,REF\u002A\u002A*
X81200000Y-72560000D03*
G04 #@! TD*
G04 #@! TO.C,REF\u002A\u002A*
X32230000Y-26436667D03*
G04 #@! TD*
G04 #@! TO.C,REF\u002A\u002A*
X16240000Y-72560000D03*
G04 #@! TD*
G04 #@! TO.C,REF\u002A\u002A*
X82200000Y-72560000D03*
G04 #@! TD*
G04 #@! TO.C,REF\u002A\u002A*
X15240000Y-4750000D03*
G04 #@! TD*
D15*
G04 #@! TO.C,A3*
X76652000Y-31284000D03*
X79152000Y-33784000D03*
X76652000Y-36284000D03*
G04 #@! TD*
G04 #@! TO.C,A3*
X11692000Y-31284000D03*
X14192000Y-33784000D03*
X11692000Y-36284000D03*
G04 #@! TD*
G04 #@! TO.C,A3*
X109132000Y-31284000D03*
X111632000Y-33784000D03*
X109132000Y-36284000D03*
G04 #@! TD*
G04 #@! TO.C,A3*
X44172000Y-31284000D03*
X46672000Y-33784000D03*
X44172000Y-36284000D03*
G04 #@! TD*
D16*
G04 #@! TO.C,A2*
X11176000Y-16430000D03*
D17*
X13716000Y-16430000D03*
X16256000Y-16430000D03*
X18796000Y-16430000D03*
X21336000Y-16430000D03*
X23876000Y-16430000D03*
X26416000Y-16430000D03*
X28956000Y-16430000D03*
G04 #@! TD*
D16*
G04 #@! TO.C,A2*
X43656000Y-16430000D03*
D17*
X46196000Y-16430000D03*
X48736000Y-16430000D03*
X51276000Y-16430000D03*
X53816000Y-16430000D03*
X56356000Y-16430000D03*
X58896000Y-16430000D03*
X61436000Y-16430000D03*
G04 #@! TD*
D16*
G04 #@! TO.C,A2*
X76136000Y-16430000D03*
D17*
X78676000Y-16430000D03*
X81216000Y-16430000D03*
X83756000Y-16430000D03*
X86296000Y-16430000D03*
X88836000Y-16430000D03*
X91376000Y-16430000D03*
X93916000Y-16430000D03*
G04 #@! TD*
D16*
G04 #@! TO.C,A2*
X108616000Y-16430000D03*
D17*
X111156000Y-16430000D03*
X113696000Y-16430000D03*
X116236000Y-16430000D03*
X118776000Y-16430000D03*
X121316000Y-16430000D03*
X123856000Y-16430000D03*
X126396000Y-16430000D03*
G04 #@! TD*
M02*
