M48
; DRILL file {KiCad 7.0.1} date Wed Apr 19 14:44:16 2023
; FORMAT={-:-/ absolute / metric / decimal}
; #@! TF.CreationDate,2023-04-19T14:44:16-07:00
; #@! TF.GenerationSoftware,Kicad,Pcbnew,7.0.1
; #@! TF.FileFunction,MixedPlating,1,2
FMAT,2
METRIC
; #@! TA.AperFunction,Plated,PTH,ViaDrill
T1C0.305
; #@! TA.AperFunction,Plated,PTH,ViaDrill
T2C0.381
; #@! TA.AperFunction,Plated,PTH,ViaDrill
T3C0.508
; #@! TA.AperFunction,Plated,PTH,ComponentDrill
T4C1.000
; #@! TA.AperFunction,NonPlated,NPTH,ComponentDrill
T5C0.500
; #@! TA.AperFunction,NonPlated,NPTH,ComponentDrill
T6C1.500
; #@! TA.AperFunction,NonPlated,NPTH,ComponentDrill
T7C1.800
; #@! TA.AperFunction,NonPlated,NPTH,ComponentDrill
T8C2.000
%
G90
G05
T1
X0.635Y-15.16
X0.635Y-17.7
X0.635Y-20.24
X0.635Y-22.78
X0.635Y-32.94
X0.635Y-35.48
X0.635Y-38.02
X0.635Y-40.56
X0.635Y-43.1
X0.635Y-45.64
X0.635Y-53.26
X0.635Y-55.8
X0.635Y-58.34
X0.635Y-60.88
X0.635Y-63.42
X1.016Y-48.18
X1.016Y-50.72
X1.092Y-25.32
X1.092Y-27.86
X1.092Y-30.4
X2.921Y-43.735
X2.921Y-46.402
X3.175Y-27.733
X3.175Y-40.433
X3.556Y-17.192
X5.715Y-15.16
X6.35Y-6.27
X6.35Y-8.81
X6.35Y-11.35
X7.874Y-31.035
X7.874Y-33.956
X7.874Y-36.877
X7.874Y-63.42
X8.001Y-61.642
X9.652Y-14.652
X9.652Y-21.891
X10.16Y-40.56
X10.922Y-48.18
X12.7Y-40.56
X12.7Y-43.1
X12.7Y-50.72
X12.7Y-65.96
X13.208Y-63.42
X13.97Y-6.27
X13.97Y-8.81
X13.97Y-11.35
X13.97Y-14.652
X15.24Y-25.32
X15.24Y-30.4
X15.24Y-38.02
X15.24Y-40.56
X15.24Y-43.1
X15.24Y-45.64
X15.24Y-58.34
X15.24Y-60.88
X15.24Y-63.42
X15.24Y-65.96
X15.24Y-68.5
X15.24Y-71.04
X17.653Y-35.734
X17.78Y-22.78
X17.78Y-25.32
X17.78Y-30.4
X17.78Y-32.94
X17.78Y-40.56
X17.78Y-43.1
X17.78Y-45.64
X17.78Y-48.18
X17.78Y-51.99
X17.78Y-60.88
X17.78Y-63.42
X17.78Y-65.96
X18.415Y-13.001
X18.796Y-54.276
X19.177Y-13.763
X19.414Y-62.178
X20.684Y-62.178
X21.209Y-40.56
X22.225Y-5.635
X22.225Y-11.731
X22.589Y-62.178
X22.606Y-40.433
X22.606Y-43.735
X22.606Y-47.037
X22.716Y-53.415
X22.733Y-23.796
X22.733Y-55.673
X23.368Y-18.208
X23.495Y-13.001
X24.892Y-8.81
X25.146Y-15.033
X25.273Y-18.335
X27.288Y-62.559
X27.305Y-22.399
X27.305Y-43.608
X27.415Y-48.589
X27.432Y-18.208
X27.432Y-20.494
X27.432Y-23.923
X27.559Y-34.956
X27.559Y-37.004
X27.881Y-36.056
X27.899Y-29.806
X27.94Y-28.749
X27.94Y-32.178
X28.067Y-30.781
X29.083Y-23.034
X29.21Y-15.033
X29.337Y-49.45
X29.515Y-27.708
X29.845Y-35.48
X29.845Y-38.02
X29.845Y-44.37
X29.845Y-55.8
X29.845Y-58.34
X29.845Y-60.88
X29.845Y-63.42
X33.115Y-15.16
X33.115Y-17.7
X33.115Y-20.24
X33.115Y-22.78
X33.115Y-32.94
X33.115Y-35.48
X33.115Y-38.02
X33.115Y-40.56
X33.115Y-43.1
X33.115Y-45.64
X33.115Y-53.26
X33.115Y-55.8
X33.115Y-58.34
X33.115Y-60.88
X33.115Y-63.42
X33.496Y-48.18
X33.496Y-50.72
X33.572Y-25.32
X33.572Y-27.86
X33.572Y-30.4
X35.401Y-43.735
X35.401Y-46.402
X35.655Y-27.733
X35.655Y-40.433
X36.036Y-17.192
X38.195Y-15.16
X38.83Y-6.27
X38.83Y-8.81
X38.83Y-11.35
X40.354Y-31.035
X40.354Y-33.956
X40.354Y-36.877
X40.354Y-63.42
X40.481Y-61.642
X42.132Y-14.652
X42.132Y-21.891
X42.64Y-40.56
X43.402Y-48.18
X45.18Y-40.56
X45.18Y-43.1
X45.18Y-50.72
X45.18Y-65.96
X45.688Y-63.42
X46.45Y-6.27
X46.45Y-8.81
X46.45Y-11.35
X46.45Y-14.652
X47.72Y-25.32
X47.72Y-30.4
X47.72Y-38.02
X47.72Y-40.56
X47.72Y-43.1
X47.72Y-45.64
X47.72Y-58.34
X47.72Y-60.88
X47.72Y-63.42
X47.72Y-65.96
X47.72Y-68.5
X47.72Y-71.04
X50.133Y-35.734
X50.26Y-22.78
X50.26Y-25.32
X50.26Y-30.4
X50.26Y-32.94
X50.26Y-40.56
X50.26Y-43.1
X50.26Y-45.64
X50.26Y-48.18
X50.26Y-51.99
X50.26Y-60.88
X50.26Y-63.42
X50.26Y-65.96
X50.895Y-13.001
X51.276Y-54.276
X51.657Y-13.763
X51.894Y-62.178
X53.164Y-62.178
X53.689Y-40.56
X54.705Y-5.635
X54.705Y-11.731
X55.069Y-62.178
X55.086Y-40.433
X55.086Y-43.735
X55.086Y-47.037
X55.196Y-53.415
X55.213Y-23.796
X55.213Y-55.673
X55.848Y-18.208
X55.975Y-13.001
X57.372Y-8.81
X57.626Y-15.033
X57.753Y-18.335
X59.768Y-62.559
X59.785Y-22.399
X59.785Y-43.608
X59.895Y-48.589
X59.912Y-18.208
X59.912Y-20.494
X59.912Y-23.923
X60.039Y-34.956
X60.039Y-37.004
X60.361Y-36.056
X60.379Y-29.806
X60.42Y-28.749
X60.42Y-32.178
X60.547Y-30.781
X61.563Y-23.034
X61.69Y-15.033
X61.817Y-49.45
X61.995Y-27.708
X62.325Y-35.48
X62.325Y-38.02
X62.325Y-44.37
X62.325Y-55.8
X62.325Y-58.34
X62.325Y-60.88
X62.325Y-63.42
X65.595Y-15.16
X65.595Y-17.7
X65.595Y-20.24
X65.595Y-22.78
X65.595Y-32.94
X65.595Y-35.48
X65.595Y-38.02
X65.595Y-40.56
X65.595Y-43.1
X65.595Y-45.64
X65.595Y-53.26
X65.595Y-55.8
X65.595Y-58.34
X65.595Y-60.88
X65.595Y-63.42
X65.976Y-48.18
X65.976Y-50.72
X66.052Y-25.32
X66.052Y-27.86
X66.052Y-30.4
X67.881Y-43.735
X67.881Y-46.402
X68.135Y-27.733
X68.135Y-40.433
X68.516Y-17.192
X70.675Y-15.16
X71.31Y-6.27
X71.31Y-8.81
X71.31Y-11.35
X72.834Y-31.035
X72.834Y-33.956
X72.834Y-36.877
X72.834Y-63.42
X72.961Y-61.642
X74.612Y-14.652
X74.612Y-21.891
X75.12Y-40.56
X75.882Y-48.18
X77.66Y-40.56
X77.66Y-43.1
X77.66Y-50.72
X77.66Y-65.96
X78.168Y-63.42
X78.93Y-6.27
X78.93Y-8.81
X78.93Y-11.35
X78.93Y-14.652
X80.2Y-25.32
X80.2Y-30.4
X80.2Y-38.02
X80.2Y-40.56
X80.2Y-43.1
X80.2Y-45.64
X80.2Y-58.34
X80.2Y-60.88
X80.2Y-63.42
X80.2Y-65.96
X80.2Y-68.5
X80.2Y-71.04
X82.613Y-35.734
X82.74Y-22.78
X82.74Y-25.32
X82.74Y-30.4
X82.74Y-32.94
X82.74Y-40.56
X82.74Y-43.1
X82.74Y-45.64
X82.74Y-48.18
X82.74Y-51.99
X82.74Y-60.88
X82.74Y-63.42
X82.74Y-65.96
X83.375Y-13.001
X83.756Y-54.276
X84.137Y-13.763
X84.374Y-62.178
X85.644Y-62.178
X86.169Y-40.56
X87.185Y-5.635
X87.185Y-11.731
X87.549Y-62.178
X87.566Y-40.433
X87.566Y-43.735
X87.566Y-47.037
X87.676Y-53.415
X87.693Y-23.796
X87.693Y-55.673
X88.328Y-18.208
X88.455Y-13.001
X89.852Y-8.81
X90.106Y-15.033
X90.233Y-18.335
X92.248Y-62.559
X92.265Y-22.399
X92.265Y-43.608
X92.375Y-48.589
X92.392Y-18.208
X92.392Y-20.494
X92.392Y-23.923
X92.519Y-34.956
X92.519Y-37.004
X92.841Y-36.056
X92.859Y-29.806
X92.9Y-28.749
X92.9Y-32.178
X93.027Y-30.781
X94.043Y-23.034
X94.17Y-15.033
X94.297Y-49.45
X94.475Y-27.708
X94.805Y-35.48
X94.805Y-38.02
X94.805Y-44.37
X94.805Y-55.8
X94.805Y-58.34
X94.805Y-60.88
X94.805Y-63.42
X98.075Y-15.16
X98.075Y-17.7
X98.075Y-20.24
X98.075Y-22.78
X98.075Y-32.94
X98.075Y-35.48
X98.075Y-38.02
X98.075Y-40.56
X98.075Y-43.1
X98.075Y-45.64
X98.075Y-53.26
X98.075Y-55.8
X98.075Y-58.34
X98.075Y-60.88
X98.075Y-63.42
X98.456Y-48.18
X98.456Y-50.72
X98.532Y-25.32
X98.532Y-27.86
X98.532Y-30.4
X100.361Y-43.735
X100.361Y-46.402
X100.615Y-27.733
X100.615Y-40.433
X100.996Y-17.192
X103.155Y-15.16
X103.79Y-6.27
X103.79Y-8.81
X103.79Y-11.35
X105.314Y-31.035
X105.314Y-33.956
X105.314Y-36.877
X105.314Y-63.42
X105.441Y-61.642
X107.092Y-14.652
X107.092Y-21.891
X107.6Y-40.56
X108.362Y-48.18
X110.14Y-40.56
X110.14Y-43.1
X110.14Y-50.72
X110.14Y-65.96
X110.648Y-63.42
X111.41Y-6.27
X111.41Y-8.81
X111.41Y-11.35
X111.41Y-14.652
X112.68Y-25.32
X112.68Y-30.4
X112.68Y-38.02
X112.68Y-40.56
X112.68Y-43.1
X112.68Y-45.64
X112.68Y-58.34
X112.68Y-60.88
X112.68Y-63.42
X112.68Y-65.96
X112.68Y-68.5
X112.68Y-71.04
X115.093Y-35.734
X115.22Y-22.78
X115.22Y-25.32
X115.22Y-30.4
X115.22Y-32.94
X115.22Y-40.56
X115.22Y-43.1
X115.22Y-45.64
X115.22Y-48.18
X115.22Y-51.99
X115.22Y-60.88
X115.22Y-63.42
X115.22Y-65.96
X115.855Y-13.001
X116.236Y-54.276
X116.617Y-13.763
X116.854Y-62.178
X118.124Y-62.178
X118.649Y-40.56
X119.665Y-5.635
X119.665Y-11.731
X120.029Y-62.178
X120.046Y-40.433
X120.046Y-43.735
X120.046Y-47.037
X120.156Y-53.415
X120.173Y-23.796
X120.173Y-55.673
X120.808Y-18.208
X120.935Y-13.001
X122.332Y-8.81
X122.586Y-15.033
X122.713Y-18.335
X124.728Y-62.559
X124.745Y-22.399
X124.745Y-43.608
X124.855Y-48.589
X124.872Y-18.208
X124.872Y-20.494
X124.872Y-23.923
X124.999Y-34.956
X124.999Y-37.004
X125.321Y-36.056
X125.339Y-29.806
X125.38Y-28.749
X125.38Y-32.178
X125.507Y-30.781
X126.523Y-23.034
X126.65Y-15.033
X126.777Y-49.45
X126.955Y-27.708
X127.285Y-35.48
X127.285Y-38.02
X127.285Y-44.37
X127.285Y-55.8
X127.285Y-58.34
X127.285Y-60.88
X127.285Y-63.42
T2
X5.715Y-65.833
X9.017Y-25.701
X24.494Y-65.988
X38.195Y-65.833
X41.497Y-25.701
X56.974Y-65.988
X70.675Y-65.833
X73.977Y-25.701
X89.454Y-65.988
X103.155Y-65.833
X106.457Y-25.701
X121.934Y-65.988
T3
X9.398Y-61.134
X41.878Y-61.134
X74.358Y-61.134
X106.838Y-61.134
T4
X11.176Y-16.43
X13.716Y-16.43
X16.256Y-16.43
X18.796Y-16.43
X21.336Y-16.43
X23.876Y-16.43
X26.416Y-16.43
X28.956Y-16.43
X43.656Y-16.43
X46.196Y-16.43
X48.736Y-16.43
X51.276Y-16.43
X53.816Y-16.43
X56.356Y-16.43
X58.896Y-16.43
X61.436Y-16.43
X76.136Y-16.43
X78.676Y-16.43
X81.216Y-16.43
X83.756Y-16.43
X86.296Y-16.43
X88.836Y-16.43
X91.376Y-16.43
X93.916Y-16.43
X108.616Y-16.43
X111.156Y-16.43
X113.696Y-16.43
X116.236Y-16.43
X118.776Y-16.43
X121.316Y-16.43
X123.856Y-16.43
X126.396Y-16.43
T5
X13.24Y-4.75
X13.24Y-72.56
X14.24Y-4.75
X14.24Y-72.56
X15.24Y-4.75
X15.24Y-72.56
X16.24Y-4.75
X16.24Y-72.56
X17.24Y-4.75
X17.24Y-72.56
X30.73Y-25.437
X30.73Y-26.437
X30.73Y-27.437
X30.73Y-28.437
X30.73Y-29.437
X30.73Y-47.873
X30.73Y-48.873
X30.73Y-49.873
X30.73Y-50.873
X30.73Y-51.873
X32.23Y-25.437
X32.23Y-26.437
X32.23Y-27.437
X32.23Y-28.437
X32.23Y-29.437
X32.23Y-47.873
X32.23Y-48.873
X32.23Y-49.873
X32.23Y-50.873
X32.23Y-51.873
X45.72Y-4.75
X45.72Y-72.56
X46.72Y-4.75
X46.72Y-72.56
X47.72Y-4.75
X47.72Y-72.56
X48.72Y-4.75
X48.72Y-72.56
X49.72Y-4.75
X49.72Y-72.56
X63.21Y-25.437
X63.21Y-26.437
X63.21Y-27.437
X63.21Y-28.437
X63.21Y-29.437
X63.21Y-47.873
X63.21Y-48.873
X63.21Y-49.873
X63.21Y-50.873
X63.21Y-51.873
X64.71Y-25.437
X64.71Y-26.437
X64.71Y-27.437
X64.71Y-28.437
X64.71Y-29.437
X64.71Y-47.873
X64.71Y-48.873
X64.71Y-49.873
X64.71Y-50.873
X64.71Y-51.873
X78.2Y-4.75
X78.2Y-72.56
X79.2Y-4.75
X79.2Y-72.56
X80.2Y-4.75
X80.2Y-72.56
X81.2Y-4.75
X81.2Y-72.56
X82.2Y-4.75
X82.2Y-72.56
X95.69Y-25.437
X95.69Y-26.437
X95.69Y-27.437
X95.69Y-28.437
X95.69Y-29.437
X95.69Y-47.873
X95.69Y-48.873
X95.69Y-49.873
X95.69Y-50.873
X95.69Y-51.873
X97.19Y-25.437
X97.19Y-26.437
X97.19Y-27.437
X97.19Y-28.437
X97.19Y-29.437
X97.19Y-47.873
X97.19Y-48.873
X97.19Y-49.873
X97.19Y-50.873
X97.19Y-51.873
X110.68Y-4.75
X110.68Y-72.56
X111.68Y-4.75
X111.68Y-72.56
X112.68Y-4.75
X112.68Y-72.56
X113.68Y-4.75
X113.68Y-72.56
X114.68Y-4.75
X114.68Y-72.56
T6
X12.815Y-67.626
X17.665Y-67.626
X45.295Y-67.626
X50.145Y-67.626
X77.775Y-67.626
X82.625Y-67.626
X110.255Y-67.626
X115.105Y-67.626
T7
X12.515Y-70.656
X17.965Y-70.656
X44.995Y-70.656
X50.445Y-70.656
X77.475Y-70.656
X82.925Y-70.656
X109.955Y-70.656
X115.405Y-70.656
T8
X11.692Y-31.284
X11.692Y-36.284
X14.192Y-33.784
X44.172Y-31.284
X44.172Y-36.284
X46.672Y-33.784
X76.652Y-31.284
X76.652Y-36.284
X79.152Y-33.784
X109.132Y-31.284
X109.132Y-36.284
X111.632Y-33.784
T0
M30
